# xmcd
#
# Track frame offsets: 
#        150
#        11470
#        25444
#        37001
#        49756
#        62274
#        74611
#        87199
#        96422
#        111135
#        123535
#        138220
#        150892
#        163947
#        177643
#        190440
#        202924
#        217079
#        230482
#        244414
#        258110
#        274160
#        300317
#        334385
#
# Disc length: 4476 seconds
#
# Revision: 0
# Processed by: cddbd v1.5.2PL0 Copyright (c) Steve Scherf et al.
# Submitted via: ExactAudioCopy v0.99pb5
#
DISCID=5d117a18
DTITLE=BB King - BB King The ultimate CD
DYEAR=1900
DGENRE=Blues
TTITLE0=BB`s Blues
TTITLE1=Blind Love
TTITLE2=Did you ever love a women
TTITLE3=Ever day I have the blues
TTITLE4=I gotta find my baby
TTITLE5=Miss Martha King
TTITLE6=Mistreated women
TTITLE7=My Baby`s gone
TTITLE8=Past Day
TTITLE9=Please hurry home
TTITLE10=Sweet little angel
TTITLE11=Ten long years
TTITLE12=The woman I love
TTITLE13=Three o`clock blues
TTITLE14=What can I do
TTITLE15=Why I sing the blues
TTITLE16=Whole lotta love
TTITLE17=Woke up this morning
TTITLE18=You know I love you
TTITLE19=You upset me baby
TTITLE20=Outside Help
TTITLE21=Payin`the cost to be the boss
TTITLE22=The thrill is gone
TTITLE23=x
EXTD=
EXTT0=
EXTT1=
EXTT2=
EXTT3=
EXTT4=
EXTT5=
EXTT6=
EXTT7=
EXTT8=
EXTT9=
EXTT10=
EXTT11=
EXTT12=
EXTT13=
EXTT14=
EXTT15=
EXTT16=
EXTT17=
EXTT18=
EXTT19=
EXTT20=
EXTT21=
EXTT22=
EXTT23=
PLAYORDER=
